<svg width="50" height="50" viewBox="0 0 50 50" fill="none" xmlns="http://www.w3.org/2000/svg">
<path d="M41.8928 38.0078H26.9285C26.3132 38.0078 25.8143 37.5089 25.8143 36.8931V18.0431C25.8143 17.427 26.3132 16.9285 26.9285 16.9285H41.8928C42.5083 16.9285 43.0072 17.4274 43.0072 18.0431V36.8924C43.0077 37.5085 42.5086 38.0073 41.8928 38.0073V38.0078ZM28.042 35.7784H40.7778V19.1577H28.042V35.7784Z" fill="white"/>
<path d="M41.8928 14.2835H26.9285C26.3132 14.2835 25.8143 13.7846 25.8143 13.1691V3.10695C25.8143 2.49088 26.3132 1.99231 26.9285 1.99231H41.8928C42.5083 1.99231 43.0072 2.4912 43.0072 3.10695V13.1698C43.0077 13.785 42.5086 14.2837 41.8928 14.2837V14.2835ZM28.042 12.0547H40.7778V4.22045H28.042V12.0547Z" fill="white"/>
<path d="M22.055 21.3671H8.1071C7.49159 21.3671 6.99268 20.8682 6.99268 20.2527V3.10695C6.99268 2.49088 7.49156 1.99231 8.1071 1.99231H22.055C22.6705 1.99231 23.1694 2.4912 23.1694 3.10695V20.2534C23.1691 20.8683 22.6705 21.3672 22.0547 21.3672L22.055 21.3671ZM9.22068 19.1383H20.94V4.22045H9.22068V19.1383Z" fill="white"/>
<path d="M22.055 38.0078H8.1071C7.49159 38.0078 6.99268 37.5089 6.99268 36.8932V25.1268C6.99268 24.5112 7.49156 24.0123 8.1071 24.0123H22.055C22.6705 24.0123 23.1694 24.5112 23.1694 25.1268V36.8932C23.1691 37.5087 22.6705 38.0076 22.0547 38.0076L22.055 38.0078ZM9.22068 35.7785H20.94V26.2413H9.22068V35.7785Z" fill="white"/>
</svg>
