<svg width="50" height="50" viewBox="0 0 50 50" fill="none" xmlns="http://www.w3.org/2000/svg">
<path d="M17.2801 18.6196H17.28C14.2802 18.6196 11.7 16.0478 11.7 12.9598C11.7 9.86964 14.2425 7.29993 17.28 7.29993C20.3216 7.29993 22.9 9.87389 22.9 12.9601C22.9 16.0438 20.2838 18.6199 17.2801 18.6196Z" stroke="white"/>
<path d="M32.52 7.29993C29.4426 7.29993 26.9399 9.82975 26.9399 12.9598C26.9399 16.0902 29.4423 18.6196 32.52 18.6196C35.5974 18.6196 38.1001 16.0898 38.1001 12.9598L32.52 7.29993ZM32.52 7.29993C35.5974 7.29993 38.0998 9.82963 38.1001 12.9598L32.52 7.29993Z" stroke="white"/>
<mask id="path-3-inside-1_72_64" fill="white">
<path d="M17.28 22.64C10.4399 22.64 7.28004 27.2 6.32004 28.9999C6.08008 29.4001 6 29.8799 6 30.3599C6 31.9597 7.28014 33.2399 8.88 33.2399H25.76C27.3599 33.2399 28.64 31.9597 28.64 30.3599C28.64 29.88 28.52 29.4399 28.32 28.9999C27.28 27.2 24.1598 22.64 17.28 22.64H17.28Z"/>
</mask>
<path d="M6.32004 28.9999L7.17763 29.5143L7.19056 29.4927L7.20238 29.4705L6.32004 28.9999ZM28.32 28.9999L29.2303 28.586L29.2102 28.5418L29.1858 28.4997L28.32 28.9999ZM17.28 21.64C9.9057 21.64 6.47696 26.5808 5.43769 28.5293L7.20238 29.4705C8.08311 27.8192 10.9741 23.64 17.28 23.64V21.64ZM5.46244 28.4856C5.09352 29.1008 5 29.784 5 30.3599H7C7 29.9759 7.06664 29.6993 7.17763 29.5143L5.46244 28.4856ZM5 30.3599C5 32.512 6.72786 34.2399 8.88 34.2399V32.2399C7.83243 32.2399 7 31.4074 7 30.3599H5ZM8.88 34.2399H25.76V32.2399H8.88V34.2399ZM25.76 34.2399C27.9121 34.2399 29.64 32.512 29.64 30.3599H27.64C27.64 31.4074 26.8076 32.2399 25.76 32.2399V34.2399ZM29.64 30.3599C29.64 29.7034 29.4736 29.1213 29.2303 28.586L27.4096 29.4138C27.5664 29.7586 27.64 30.0566 27.64 30.3599H29.64ZM29.1858 28.4997C28.0816 26.5884 24.6981 21.64 17.28 21.64V23.64C23.6215 23.64 26.4785 27.8116 27.4541 29.5002L29.1858 28.4997ZM17.28 23.64H17.28V21.64H17.28V23.64Z" fill="white" mask="url(#path-3-inside-1_72_64)"/>
<path d="M29.4413 23.5252C30.3668 23.2936 31.4059 23.14 32.5199 23.14L32.5199 23.1401C39.4761 23.1401 42.4268 27.9649 43.2843 29.4858L43.2899 29.4956L43.2959 29.5052C43.4367 29.7304 43.5 29.994 43.5 30.2801V31.1601C43.5 32.0379 42.7701 32.7402 41.9199 32.7402H32.1199C31.2422 32.7402 30.5399 32.0103 30.5399 31.1601V29.8002C30.5399 29.4797 30.4953 29.1129 30.3272 28.7767L30.3132 28.7486L30.2998 28.7286C30.2998 28.7287 30.2999 28.7287 30.2999 28.7287C30.3001 28.7286 30.2925 28.7154 30.2723 28.6766C30.2595 28.6521 30.2478 28.6296 30.2345 28.6039C30.2195 28.5747 30.2023 28.5415 30.1789 28.4967C30.1002 28.3457 29.9907 28.1394 29.8488 27.8918C29.5659 27.3979 29.1548 26.74 28.5999 26.02C27.9188 25.085 28.3735 23.7921 29.4412 23.5252L29.4413 23.5252Z" stroke="white"/>
</svg>
