<svg width="50" height="50" viewBox="0 0 50 50" fill="none" xmlns="http://www.w3.org/2000/svg">
<path d="M26.0443 6.40015C20.6911 6.40015 16.0279 9.43365 13.7571 13.8751L13.2072 12.8877C13.0663 12.628 12.8565 12.412 12.6003 12.2641C12.3445 12.1165 12.0526 12.0423 11.7571 12.0504C11.1918 12.0629 10.6753 12.3729 10.398 12.8657C10.121 13.3584 10.1243 13.9608 10.4073 14.4502L12.6073 18.3752H12.607C12.8082 18.7379 13.1419 19.008 13.5384 19.1294C13.9349 19.2505 14.3626 19.2134 14.732 19.0253L18.6444 17.0253H18.6447C19.1182 16.7653 19.4288 16.2837 19.4698 15.7446C19.511 15.2058 19.2775 14.6827 18.8489 14.3537C18.4204 14.0244 17.8545 13.9337 17.3447 14.1129C19.2459 11.3983 22.4195 9.6003 26.0447 9.6003C31.9077 9.6003 36.6076 14.2493 36.6076 20.0003C36.6076 25.7513 31.9081 30.4003 26.0447 30.4003C21.0297 30.4003 16.8676 26.9589 15.7697 22.3874V22.3872C15.6704 21.9745 15.4109 21.6179 15.0487 21.3964C14.6866 21.1748 14.251 21.1062 13.8384 21.2058C13.4257 21.3051 13.0691 21.5646 12.8476 21.9268C12.626 22.289 12.5577 22.7245 12.6573 23.1372C14.0998 29.1416 19.5661 33.6 26.0451 33.6C33.6144 33.6 39.808 27.5037 39.808 20C39.808 12.4965 33.6149 6.40002 26.0451 6.40002L26.0443 6.40015ZM26.1818 11.9752C25.7575 11.9819 25.3531 12.1566 25.058 12.4615C24.7625 12.7662 24.6004 13.1758 24.6068 13.6002V20.0003V20.0001C24.6065 20.4864 24.8275 20.9462 25.207 21.2501L29.207 24.4501C29.6534 24.8075 30.2566 24.8993 30.7895 24.6912C31.3222 24.483 31.7033 24.0065 31.7895 23.4412C31.8755 22.8759 31.6534 22.3076 31.207 21.9501L27.8068 19.2253V13.6003C27.8135 13.1672 27.6447 12.7498 27.3383 12.4438C27.0323 12.1374 26.6148 11.9686 26.1818 11.9753L26.1818 11.9752Z" fill="white"/>
</svg>
