<svg width="50" height="50" viewBox="0 0 50 50" fill="none" xmlns="http://www.w3.org/2000/svg">
<path d="M41.8765 3.12418C37.7105 -1.04074 30.9565 -1.04074 26.7915 3.12418L20.8395 9.07368C21.3108 9.02234 21.7868 9.00031 22.2653 9.00031C23.7714 9.00031 25.2363 9.23971 26.623 9.70092L29.9958 6.32956C31.1543 5.16999 32.6947 4.53271 34.3328 4.53271C35.9713 4.53271 37.5117 5.16998 38.6699 6.32956C39.8284 7.48663 40.4654 9.02485 40.4654 10.6652C40.4654 12.3033 39.8284 13.8438 38.6699 15.0008L32.0711 21.5996C30.9126 22.7598 29.3722 23.3968 27.7341 23.3968C26.0934 23.3968 24.5555 22.7598 23.3959 21.6002C22.832 21.0385 22.3926 20.3843 22.0898 19.6713C21.3379 19.7129 20.6348 20.0254 20.0976 20.5623L18.3398 22.3223C18.8209 23.2133 19.4383 24.0531 20.1903 24.8078C24.3552 28.973 31.1103 28.973 35.276 24.8078L41.8758 18.2066C46.0396 14.0419 46.0396 7.28942 41.8761 3.12442L41.8765 3.12418Z" fill="white"/>
<path d="M27.805 30.9972C26.2964 30.9972 24.817 30.7531 23.3986 30.2721L20.0026 33.668C18.8456 34.8276 17.3051 35.4649 15.667 35.4649C14.0288 35.4649 12.4909 34.8279 11.3313 33.668C10.1718 32.5107 9.53448 30.9705 9.53448 29.3324C9.53448 27.6942 10.1718 26.1535 11.3313 24.9942L17.9301 18.3955C19.0897 17.2384 20.6277 16.6011 22.2658 16.6011C23.9064 16.6011 25.4443 17.2384 26.6025 18.3955C27.1667 18.9594 27.607 19.6137 27.9111 20.3265C28.6655 20.2875 29.3698 19.9725 29.9069 19.4356L31.6622 17.6778C31.1812 16.7841 30.5623 15.9445 29.8093 15.1901C25.6443 11.0252 18.8893 11.0252 14.7243 15.1901L8.12548 21.7914C3.95834 25.9565 3.95834 32.7085 8.12548 36.8764C12.2904 41.0415 19.0426 41.0415 23.2076 36.8764L29.1496 30.9342C28.7065 30.9755 28.2587 30.9978 27.807 30.9978L27.805 30.9972Z" fill="white"/>
</svg>
