<svg width="50" height="50" viewBox="0 0 50 50" fill="none" xmlns="http://www.w3.org/2000/svg">
<path d="M16.595 11.8214C16.2825 11.5089 15.8587 11.3334 15.4167 11.3334C14.9748 11.3334 14.551 11.5089 14.2385 11.8214L7.23846 18.8214C7.16564 18.8945 7.09979 18.9743 7.04175 19.0597L7.03506 19.0689C6.98204 19.1479 6.93628 19.2316 6.89861 19.3189C6.89192 19.3295 6.88606 19.3407 6.88104 19.3521C6.84588 19.435 6.81798 19.5207 6.79761 19.608C6.79259 19.6272 6.78421 19.6454 6.78003 19.6655H6.78031C6.73567 19.8856 6.73567 20.1122 6.78031 20.3323C6.78031 20.3532 6.7937 20.3714 6.79872 20.3915H6.79844C6.81937 20.4768 6.84727 20.5605 6.88187 20.6415C6.8869 20.6532 6.89443 20.6632 6.89945 20.6747C6.9374 20.7617 6.98288 20.8454 7.03505 20.9247C7.04007 20.9322 7.04677 20.9381 7.05179 20.9448C7.10732 21.0262 7.17009 21.1021 7.23929 21.1722L14.2393 28.1722C14.6626 28.5812 15.2703 28.7363 15.8378 28.5806C16.4056 28.4252 16.8489 27.9816 17.0046 27.4141C17.1601 26.8465 17.0049 26.2389 16.5959 25.8156L12.4402 21.6663H25.8337C26.4292 21.6663 26.9794 21.3488 27.2771 20.8331C27.5748 20.3175 27.5748 19.6819 27.2771 19.1663C26.9794 18.6506 26.4292 18.3331 25.8337 18.3331H12.4402L16.5953 14.178H16.595C16.9075 13.8655 17.083 13.4416 17.083 12.9997C17.083 12.5578 16.9075 12.1339 16.595 11.8214L16.595 11.8214Z" fill="white"/>
<path d="M36.4165 0.833435H24.0836C22.7136 0.83483 21.4006 1.37975 20.4318 2.34822C19.4633 3.31694 18.9184 4.63029 18.9167 6.00001V12.1666C18.9167 12.762 19.2345 13.3122 19.7502 13.6099C20.2658 13.9076 20.9011 13.9076 21.4167 13.6099C21.9324 13.3122 22.2502 12.762 22.2502 12.1666V6.00001C22.2502 5.51368 22.4433 5.04743 22.7873 4.70372C23.131 4.35997 23.5973 4.16661 24.0836 4.16661H36.4164C36.9028 4.16661 37.369 4.35997 37.7127 4.70372C38.0567 5.04747 38.2498 5.51372 38.2498 6.00001V34C38.2498 34.4863 38.0567 34.9526 37.7127 35.2963C37.369 35.64 36.9027 35.8334 36.4164 35.8334H24.0836C23.5972 35.8334 23.131 35.64 22.7873 35.2963C22.4433 34.9525 22.2502 34.4863 22.2502 34V27.8334C22.2502 27.238 21.9324 26.6878 21.4167 26.3901C20.9011 26.0924 20.2658 26.0924 19.7502 26.3901C19.2345 26.6878 18.9167 27.238 18.9167 27.8334V34C18.9184 35.3697 19.4633 36.683 20.4318 37.6518C21.4005 38.6203 22.7136 39.1652 24.0836 39.1666H36.4165C37.7865 39.1652 39.0995 38.6203 40.0682 37.6518C41.0367 36.6831 41.5817 35.3697 41.5833 34V6.00001C41.5816 4.63029 41.0367 3.31701 40.0682 2.34822C39.0995 1.37972 37.7865 0.834792 36.4165 0.833435Z" fill="white"/>
</svg>
