<svg width="50" height="50" viewBox="0 0 50 50" fill="none" xmlns="http://www.w3.org/2000/svg">
<path d="M10.6735 20.0407C10.9592 20.0407 11.245 19.959 11.49 19.755L19.8164 12.5307L25.1225 17.1429C25.6121 17.5511 26.306 17.5511 26.755 17.1021L35 9.55142L37.0818 11.6332C37.3267 11.8782 37.6124 12.0007 37.9389 12.0007C38.0614 12.0007 38.1839 12.0007 38.3064 11.9599C38.7553 11.8375 39.0817 11.4703 39.1635 11.021L40.5103 4.12315C40.592 3.71495 40.4696 3.30672 40.1838 3.02101C39.8981 2.73529 39.4899 2.61281 39.0817 2.69456L32.1428 4.00063C31.6938 4.08238 31.3263 4.40883 31.2038 4.85777C31.0814 5.30672 31.2038 5.75563 31.4896 6.08242L33.2446 7.83742L25.8974 14.5721L20.5913 9.95992C20.1424 9.55172 19.4485 9.55172 18.9995 9.95992L9.85669 17.8785C9.326 18.3274 9.28526 19.1031 9.73421 19.5928C9.97919 19.8785 10.3464 20.0417 10.6731 20.0417L10.6735 20.0407Z" fill="white"/>
<path d="M43.4493 34.8979H40.9185V20.0815C40.9185 19.3876 40.3878 18.8568 39.6939 18.8568C39 18.8568 38.4693 19.3875 38.4693 20.0815V34.8979H36.0203L36.0206 15.5915C36.0206 14.8976 35.4899 14.3668 34.796 14.3668C34.102 14.3668 33.5713 14.8975 33.5713 15.5915V34.8979H31.1224L31.1227 24.1629C31.1227 23.469 30.592 22.9383 29.898 22.9383C29.2041 22.9383 28.6734 23.4689 28.6734 24.1629V34.8979H26.2245L26.2247 27.4286C26.2247 26.7347 25.694 26.204 25.0001 26.204C24.3061 26.204 23.7754 26.7347 23.7754 27.4286V34.8979H21.3265V20.0815C21.3265 19.3876 20.7958 18.8568 20.1019 18.8568C19.408 18.8568 18.8772 19.3875 18.8772 20.0815V34.8979H16.4283L16.4286 30.6937C16.4286 29.9998 15.8979 29.469 15.2039 29.469C14.51 29.469 13.9793 29.9997 13.9793 30.6937V34.8976H11.5304L11.5307 27.0198C11.5307 26.3258 11 25.7951 10.306 25.7951C9.61206 25.7951 9.08137 26.3258 9.08137 27.0198V34.8976H6.55094C5.85702 34.8976 5.32629 35.4283 5.32629 36.1222C5.32629 36.8162 5.85699 37.3469 6.55094 37.3469H43.4488C44.1427 37.3469 44.6734 36.8162 44.6734 36.1222C44.6734 35.4283 44.1427 34.8976 43.4488 34.8976L43.4493 34.8979Z" fill="white"/>
</svg>
