<svg width="50" height="50" viewBox="0 0 50 50" fill="none" xmlns="http://www.w3.org/2000/svg">
<path d="M31 3.26039H19C12.3828 3.26039 7 8.64796 7 15.2718V18.4426C7 23.6703 10.3432 28.2026 15.1686 29.8226C14.5595 30.8745 13.7294 32.5146 12.5366 35.0765C12.3293 35.521 12.4213 36.0461 12.7665 36.3946C12.9908 36.6198 13.2913 36.7395 13.5968 36.7395C13.7609 36.7395 13.9269 36.7051 14.0829 36.6332L27.5936 30.4527L30.9996 30.4529C37.6168 30.4529 42.9996 25.0654 42.9996 18.4415V15.2707C42.9996 8.64765 37.6165 3.26001 30.9996 3.26001L31 3.26039ZM40.6607 18.4418C40.6607 23.7747 36.3267 28.114 30.9993 28.114H27.3386C27.1706 28.114 27.0046 28.1502 26.8522 28.2203L16.0665 33.1544C16.7845 31.7281 17.4382 30.5216 17.7454 30.1209C18.0403 29.9429 18.2529 29.6354 18.2998 29.2688C18.379 28.6488 17.9569 28.0763 17.3422 27.968C12.7049 27.1561 9.33936 23.1491 9.33936 18.4423V15.2715C9.33936 9.93862 13.6734 5.59934 19.0008 5.59934H31.0008C36.3281 5.59934 40.6622 9.93862 40.6622 15.2715V18.442L40.6607 18.4418Z" fill="white"/>
<path d="M18.5193 17.1236C18.5193 18.5521 17.3614 19.7101 15.9328 19.7101C14.5045 19.7101 13.3463 18.5521 13.3463 17.1236C13.3463 15.6953 14.5045 14.5374 15.9328 14.5374C17.3614 14.5374 18.5193 15.6953 18.5193 17.1236Z" fill="white"/>
<path d="M36.6536 17.1236C36.6536 18.5521 35.4954 19.7101 34.0671 19.7101C32.6385 19.7101 31.4806 18.5521 31.4806 17.1236C31.4806 15.6953 32.6385 14.5374 34.0671 14.5374C35.4954 14.5374 36.6536 15.6953 36.6536 17.1236Z" fill="white"/>
<path d="M27.5865 17.1236C27.5865 18.5521 26.4282 19.7101 25 19.7101C23.5717 19.7101 22.4135 18.5521 22.4135 17.1236C22.4135 15.6953 23.5717 14.5374 25 14.5374C26.4282 14.5374 27.5865 15.6953 27.5865 17.1236Z" fill="white"/>
</svg>
