<svg width="75" height="75" viewBox="0 0 75 75" fill="none" xmlns="http://www.w3.org/2000/svg">
<path d="M29.1 48.0001H21.8997C20.5797 48.0001 19.4999 46.9203 19.4999 45.6003V14.4003C19.4999 13.0803 20.5797 12.0005 21.8997 12.0005H29.0996C30.4196 12.0005 31.4993 13.0803 31.4993 14.4003V45.6003C31.4998 46.9207 30.42 48.0005 29.0999 48.0005L29.1 48.0001Z" fill="white"/>
<path d="M53.76 29.0401L39.06 13.5601C38.5201 12.9599 37.56 13.3801 37.56 14.1602L37.8601 45.3602C37.8601 46.1404 38.8202 46.5601 39.3601 45.9604L53.7601 30.1804C54.0602 29.8803 54.0602 29.4003 53.7605 29.0403L53.76 29.0401Z" fill="white"/>
</svg>
