<svg width="75" height="75" viewBox="0 0 75 75" fill="none" xmlns="http://www.w3.org/2000/svg">
<path d="M45.9 48.0001H53.1003C54.4203 48.0001 55.5001 46.9203 55.5001 45.6003V14.4003C55.5001 13.0803 54.4203 12.0005 53.1003 12.0005H45.9004C44.5804 12.0005 43.5006 13.0803 43.5006 14.4003V45.6003C43.5002 46.9207 44.58 48.0005 45.9001 48.0005L45.9 48.0001Z" fill="white"/>
<path d="M21.24 29.0401L35.94 13.5601C36.4799 12.9599 37.44 13.3801 37.44 14.1602L37.1399 45.3602C37.1399 46.1404 36.1798 46.5601 35.6399 45.9604L21.2399 30.1804C20.9398 29.8803 20.9398 29.4003 21.2395 29.0403L21.24 29.0401Z" fill="white"/>
</svg>
