<svg width="75" height="65" viewBox="0 0 75 65" fill="none" xmlns="http://www.w3.org/2000/svg">
<path d="M22.6125 41.5277H29.9999V42.2502C29.9999 44.5724 31.4296 46.7182 33.7499 47.8793C36.0702 49.0404 38.9296 49.0404 41.2499 47.8793C43.5702 46.7182 44.9999 44.5724 44.9999 42.2502V41.5277H52.3873C53.935 41.5277 55.3994 40.9205 56.37 39.8755C57.3406 38.8308 57.713 37.4616 57.3828 36.1511C57.0522 34.8406 56.0548 33.7307 54.67 33.1317L54.5448 33.0766C53.7609 32.7342 53.2398 32.0624 53.17 31.3043L52.2086 20.4707C51.9855 18.0832 50.9966 15.7977 49.3542 13.8717C47.7115 11.9457 45.4804 10.4556 42.9123 9.57018V7.94082C42.9123 6.26502 41.8806 4.71654 40.206 3.87869C38.5315 3.04044 36.4682 3.04044 34.7936 3.87869C33.1191 4.71657 32.0874 6.26502 32.0874 7.94082V9.56582C29.5206 10.4516 27.2903 11.9413 25.6483 13.867C24.0065 15.7926 23.0179 18.0778 22.7948 20.4642L21.8334 31.2978C21.7635 32.0556 21.2425 32.7266 20.4586 33.0679L20.3221 33.1263C18.9376 33.7255 17.9411 34.8361 17.6113 36.1463C17.2819 37.4568 17.6548 38.826 18.6258 39.8703C19.5964 40.9146 21.0609 41.5214 22.6086 41.521L22.6125 41.5277ZM42.5004 42.2502C42.5004 43.7983 41.5474 45.2289 40.0001 46.003C38.4531 46.777 36.5472 46.777 35.0004 46.003C33.4531 45.2289 32.5001 43.7983 32.5001 42.2502V41.5277H42.4999L42.5004 42.2502ZM34.5876 7.94137C34.5876 7.03964 35.1426 6.20643 36.0441 5.7556C36.9452 5.30474 38.0552 5.30474 38.9563 5.7556C39.8578 6.20647 40.4128 7.03963 40.4128 7.94137V8.9251C38.4913 8.58124 36.5091 8.58124 34.5878 8.9251L34.5876 7.94137ZM21.4401 35.0733L21.5778 35.0149C23.1457 34.3308 24.1877 32.9876 24.328 31.4715L25.2894 20.6378H25.2889C25.6133 17.0531 28.0094 13.8541 31.6556 12.1381C35.3013 10.4221 39.7018 10.4221 43.347 12.1381C46.9932 13.8541 49.3893 17.0531 49.7136 20.6378L50.675 31.4715H50.6746C50.8144 32.988 51.8569 34.3319 53.4247 35.016L53.5499 35.0722C54.2568 35.3787 54.7653 35.9464 54.9331 36.6156C55.1013 37.2848 54.9109 37.9841 54.415 38.5173C53.919 39.0509 53.1716 39.361 52.381 39.3614H22.6124C21.8222 39.3614 21.0743 39.0516 20.5784 38.5188C20.082 37.9856 19.8912 37.2866 20.0582 36.6173C20.2256 35.9481 20.7337 35.3805 21.4398 35.0732L21.4401 35.0733Z" fill="white"/>
</svg>
