<svg width="75" height="75" viewBox="0 0 75 75" fill="none" xmlns="http://www.w3.org/2000/svg">
<path d="M33.75 14.265C33.2653 14.2989 32.8129 14.4906 32.4827 14.8024C32.1525 15.1146 31.9692 15.5235 31.9688 15.9483V18.9742H21.3001C15.3482 18.9742 10.5001 23.8639 10.5001 29.8674C10.5001 35.8709 15.3479 40.7606 21.3001 40.7606H25.5V40.7602C25.9817 40.7673 26.4467 40.5794 26.7899 40.2379C27.1331 39.8968 27.3265 39.431 27.3265 38.9451C27.3265 38.4588 27.1331 37.9929 26.7899 37.6519C26.4467 37.3104 25.9817 37.1224 25.5 37.1296H21.3001C17.2801 37.1296 14.1002 33.9219 14.1002 29.8677C14.1002 25.813 17.2802 22.6059 21.3001 22.6059H31.9688V25.6318V25.6314C31.9746 26.2299 32.3425 26.7811 32.936 27.0803C33.5294 27.38 34.2597 27.3825 34.8562 27.0874L44.4564 22.2651C44.859 22.0689 45.1679 21.7533 45.3274 21.3754C45.4872 20.9974 45.4872 20.5823 45.3274 20.2047C45.1679 19.8268 44.859 19.5112 44.4564 19.3149L34.8562 14.4926C34.5218 14.3219 34.1363 14.2428 33.75 14.2654L33.75 14.265ZM35.8314 18.8792L39.6191 20.7893L35.8314 22.6995V18.8792ZM49.3121 18.9738V18.9742C48.8312 18.9943 48.3788 19.2077 48.0549 19.5668C47.7309 19.9255 47.5631 20.4001 47.5878 20.8848C47.6129 21.3694 47.8293 21.824 48.188 22.147C48.547 22.4701 49.0196 22.635 49.4996 22.6049H53.6995C57.7195 22.6049 60.8994 25.8126 60.8994 29.8667C60.8994 33.9214 57.7194 37.1286 53.6995 37.1286H43.0308V34.1026V34.103C43.025 33.5041 42.6571 32.953 42.0636 32.6537C41.4702 32.3545 40.7399 32.352 40.1434 32.6466L30.5432 37.4689V37.4693C30.1406 37.6656 29.8317 37.9812 29.6722 38.3587C29.5124 38.7366 29.5124 39.1518 29.6722 39.5298C29.8317 39.9073 30.1406 40.2228 30.5432 40.4195L40.1434 45.2418C40.7398 45.5369 41.4702 45.534 42.0636 45.2347C42.6571 44.9355 43.025 44.3843 43.0308 43.7858V40.7599H53.6995C59.6514 40.7599 64.4995 35.8702 64.4995 29.8667C64.4995 23.8631 59.6517 18.9735 53.6995 18.9735H49.4996C49.4372 18.9701 49.3744 18.9701 49.3121 18.9735L49.3121 18.9738ZM39.1682 37.0338V40.8536L35.3805 38.9435L39.1682 37.0334V37.0338Z" fill="white"/>
</svg>
