<svg width="75" height="75" viewBox="0 0 75 75" fill="none" xmlns="http://www.w3.org/2000/svg">
<path d="M31.2729 17.3196C32.0187 17.351 32.9081 17.8361 33.5295 18.3044L48.8938 29.9562C49.9937 30.7895 49.9937 32.6435 48.8938 33.4768L33.5295 45.1275C32.4296 45.9608 30.8903 46.6589 30.0047 45.1275C29.2861 42.4401 32.04 39.2041 32.04 31.2879C32.04 24.3633 29.2422 19.6275 30.0047 18.3032C30.2069 17.5511 30.6965 17.2988 31.2729 17.3201V17.3196ZM32.2238 6.905C33.9945 6.79032 34.5989 9.52625 32.6799 10.0431C27.3847 11.461 22.0025 13.9505 19.2635 18.6966C18.4641 20.0752 16.7799 19.1001 17.3701 18.078C20.5341 12.5986 25.7452 8.60253 31.8537 6.96731C31.9821 6.93216 32.1069 6.91291 32.2241 6.90495L32.2238 6.905ZM37.0983 5.71764H37.1025C37.9672 5.7528 38.713 6.34627 38.9356 7.18379C39.2211 8.24266 38.5916 9.32579 37.5357 9.60704C36.481 9.89247 35.3937 9.26175 35.1124 8.20711C34.8312 7.15116 35.4565 6.06929 36.5124 5.78257C36.7028 5.73611 36.9012 5.70975 37.0983 5.7177L37.0983 5.71764ZM37.4629 2.41968C22.2239 2.41968 9.8725 14.77 9.8725 30.01C9.86957 45.249 22.2239 57.5993 37.4629 57.5993C52.7018 57.5993 65.0543 45.249 65.0543 30.009C65.0543 14.769 52.7007 2.41968 37.4629 2.41968Z" fill="white"/>
</svg>
