<svg width="75" height="75" viewBox="0 0 75 75" fill="none" xmlns="http://www.w3.org/2000/svg">
<path d="M20.76 40.2H15.6598C14.6398 40.2 13.8597 40.9801 13.8597 42.0001C13.8597 43.0201 14.6398 43.8002 15.6598 43.8002H20.76C24.6598 43.8002 28.3801 42.1202 31.0202 39.2403L36.8997 32.7L42.7796 39.2399C45.4197 42.1198 49.1395 43.7998 53.0398 43.7998H55.1998L52.0797 47.0999C51.4197 47.8197 51.4197 48.9598 52.1395 49.6199C52.4995 49.9199 52.9197 50.0999 53.3997 50.0999C53.8798 50.0999 54.3598 49.92 54.7197 49.56L61.8 42.0001L54.7197 34.4402C54.0597 33.7204 52.9196 33.6601 52.1997 34.3804C51.4799 35.0404 51.4196 36.1805 52.1399 36.9004L55.26 40.2005H53.1C50.2201 40.2005 47.4599 38.9403 45.5401 36.8406L39.2999 30.0002L45.42 23.1602C47.3402 21.0002 50.1 19.8003 52.9799 19.8003H55.1399L52.0198 23.1004C51.3598 23.8203 51.3598 24.9603 52.0796 25.6204C52.4396 25.9205 52.8598 26.1004 53.3398 26.1004C53.8199 26.1004 54.2999 25.9205 54.6599 25.5605L61.8 18.0003L54.7197 10.4404C54.0597 9.72055 52.9196 9.6603 52.1997 10.3806C51.4799 11.0406 51.4196 12.1807 52.1399 12.9006L55.26 16.2007H53.1C49.2002 16.2007 45.4799 17.8807 42.8398 20.7606L36.8997 27.3005L31.0198 20.7606C28.3797 17.8803 24.6599 16.2004 20.76 16.2004H15.6598C14.6398 16.2004 13.8597 16.9805 13.8597 18.0005C13.8597 19.0204 14.6398 19.8006 15.6598 19.8006H20.76C23.6399 19.8006 26.4001 21.0608 28.3199 23.1605L34.4999 30.0005L28.3199 36.8405C26.3997 38.9407 23.6399 40.2004 20.76 40.2004V40.2Z" fill="white"/>
</svg>
