<svg width="75" height="73" viewBox="0 0 75 73" fill="none" xmlns="http://www.w3.org/2000/svg">
<path d="M34.9264 41.3517C38.2265 41.3517 41.2625 40.1936 43.6506 38.2676L51.4386 46.0556C51.7324 46.3494 52.1166 46.4938 52.5004 46.4938C52.8846 46.4938 53.2684 46.3498 53.5622 46.0556C54.1503 45.4676 54.1503 44.5196 53.5622 43.9374L45.7742 36.1494C47.7003 33.7613 48.8584 30.7253 48.8584 27.4252C48.8584 19.7452 42.6122 13.4988 34.9319 13.4988C27.2516 13.4988 21.0055 19.7449 21.0055 27.4252C21.0055 35.1056 27.2457 41.3516 34.9255 41.3516L34.9264 41.3517ZM34.9264 16.5C40.9503 16.5 45.8582 21.4022 45.8582 27.4317C45.8582 33.4618 40.956 38.3635 34.9264 38.3635C28.8963 38.3635 24 33.4559 24 27.4253C24 21.3948 28.9022 16.4989 34.9264 16.4989V16.5Z" fill="white"/>
</svg>
