<svg width="50" height="50" viewBox="0 0 50 50" fill="none" xmlns="http://www.w3.org/2000/svg">
<path d="M27.4 2C28.9304 2 30.1999 3.2695 30.1999 4.79993V6.20007C30.4996 6.3114 30.7956 6.43166 31.0875 6.56251L32.0749 5.57509C33.1569 4.49309 34.9552 4.49309 36.0375 5.57509L39.4251 8.96266C40.5071 10.0447 40.5071 11.8307 39.4251 12.9127L38.4377 13.9002C38.5708 14.1965 38.6871 14.4956 38.8001 14.8003H40.2003C41.7307 14.8003 43.0002 16.0698 43.0002 17.6002V22.4002C43.0002 23.9306 41.7307 25.2001 40.2003 25.2001H38.8001C38.6888 25.4998 38.5683 25.7958 38.4377 26.0877L39.4251 27.0751C40.5071 28.1571 40.5071 29.9431 39.4251 31.0252L36.0375 34.4127C34.9555 35.4947 33.1573 35.4947 32.0749 34.4127L31.0875 33.4253C30.7959 33.5562 30.4996 33.6764 30.1999 33.7877V35.2001C30.1999 36.7305 28.9304 38 27.4 38H22.6C21.0696 38 19.8001 36.7305 19.8001 35.2001V33.7877C19.5041 33.6767 19.2125 33.5548 18.9251 33.4253L17.9377 34.4127C16.8582 35.4922 15.0705 35.4872 13.9876 34.4127H13.9753L10.5752 31.0377V31.0255C9.49319 29.9435 9.49319 28.1575 10.5752 27.0754L11.5752 26.0754C11.4438 25.7886 11.314 25.4987 11.2002 25.2004H9.80005C8.26962 25.2004 7.00012 23.9309 7.00012 22.4005V17.6005C7.00012 16.0701 8.26962 14.8006 9.80005 14.8006H11.2002C11.3157 14.4973 11.4413 14.2046 11.5752 13.913L10.5752 12.913C9.49319 11.831 9.49319 10.045 10.5752 8.96295L13.9753 5.57538C15.0573 4.49338 16.8556 4.49338 17.938 5.57538L18.9254 6.56281C19.2128 6.43334 19.5044 6.31142 19.8004 6.20037V4.80022C19.8004 3.26979 21.0699 2.00029 22.6003 2.00029H27.4003L27.4 2ZM27.4 4.40014H22.6C22.3579 4.40014 22.1999 4.55779 22.1999 4.80026V7.00033C22.1955 7.50674 21.8344 7.98997 21.3501 8.1379C20.5945 8.37032 19.8785 8.66496 19.1999 9.02547C18.7496 9.26459 18.1475 9.17391 17.7876 8.81286L16.2376 7.26293C16.0663 7.09134 15.8467 7.09134 15.6751 7.26293V7.27548L12.275 10.6505C12.1037 10.8221 12.1037 11.0539 12.275 11.2255L13.8375 12.788C14.1985 13.1483 14.2892 13.7501 14.0501 14.2004C13.6846 14.8904 13.3782 15.6069 13.15 16.3505C13.001 16.8391 12.5107 17.2015 11.9998 17.2004H9.79976C9.55757 17.2004 9.39964 17.358 9.39964 17.6005V22.4004C9.39964 22.6429 9.55729 22.8006 9.79976 22.8006H11.9998C12.5074 22.7967 12.9965 23.1541 13.15 23.6382C13.3782 24.3815 13.6843 25.1108 14.0501 25.8006C14.2834 26.2484 14.1932 26.8421 13.8375 27.2007L12.275 28.7632C12.1037 28.9348 12.1037 29.1667 12.275 29.3383L15.6751 32.7258C15.8467 32.8974 16.066 32.8974 16.2376 32.7258L17.7876 31.1759C18.1478 30.8148 18.7496 30.7242 19.1999 30.9633C19.8785 31.3235 20.5944 31.6181 21.3501 31.8509C21.8386 31.9999 22.2011 32.4901 22.1999 33.001V35.2011C22.1999 35.4435 22.3576 35.6012 22.6 35.6012H27.4C27.6424 35.6012 27.8001 35.4435 27.8001 35.2011V33.001C27.8001 32.4904 28.1617 31.9999 28.6499 31.8509C29.4122 31.617 30.134 31.3235 30.8123 30.9633C31.2626 30.7242 31.8647 30.8146 32.2247 31.1759L33.7746 32.7258C33.9462 32.8974 34.1655 32.8974 34.3371 32.7258L37.7247 29.3383C37.8962 29.1667 37.8962 28.9348 37.7247 28.7632L36.1747 27.2133C35.819 26.855 35.7289 26.261 35.9621 25.8131C36.3223 25.1348 36.6156 24.4005 36.8497 23.6382C37.0031 23.1544 37.4923 22.7981 37.9998 22.8006H40.1999C40.4424 22.8006 40.6 22.6429 40.6 22.4004V17.6005C40.6 17.358 40.4424 17.2004 40.1999 17.2004H37.9998C37.4892 17.2004 36.9987 16.8388 36.8497 16.3505C36.6159 15.5883 36.3223 14.8665 35.9621 14.1882C35.723 13.7378 35.8137 13.1358 36.1747 12.7758L37.7247 11.2259C37.8962 11.0543 37.8962 10.8224 37.7247 10.6508L34.3371 7.26327C34.1658 7.09168 33.9462 7.09168 33.7746 7.26327L32.2247 8.8132C31.8644 9.17425 31.2626 9.26493 30.8123 9.02581C30.134 8.6656 29.4122 8.37236 28.6499 8.13824C28.1656 7.99036 27.8042 7.50711 27.8001 7.00067V4.8006C27.8001 4.55813 27.6424 4.40048 27.4 4.40048V4.40014ZM24.9998 11.6001C29.6248 11.6001 33.3998 15.3753 33.3998 20.0001C33.3998 24.625 29.6247 28.4001 24.9998 28.4001C20.375 28.4001 16.5998 24.625 16.5998 20.0001C16.5998 15.3753 20.375 11.6001 24.9998 11.6001ZM24.9998 14.0003C21.672 14.0003 18.9998 16.6724 18.9998 20.0003C18.9998 23.3281 21.672 26.0003 24.9998 26.0003C28.3277 26.0003 30.9998 23.3281 30.9998 20.0003C30.9998 16.6724 28.3277 14.0003 24.9998 14.0003Z" fill="white"/>
</svg>
