<svg width="50" height="50" viewBox="0 0 50 50" fill="none" xmlns="http://www.w3.org/2000/svg">
<path d="M42.5 25V10.8336C42.4983 9.28698 41.883 7.80426 40.7896 6.71048C39.6959 5.61698 38.2132 5.00176 36.6665 5.00012H13.3337C11.7871 5.0018 10.3044 5.61703 9.2106 6.71048C8.1171 7.80419 7.50189 9.28691 7.50024 10.8336V29.1664C7.50192 30.713 8.11715 32.1957 9.2106 33.2895C10.3043 34.383 11.787 34.9982 13.3337 34.9998H36.6665C38.2131 34.9982 39.6958 34.3829 40.7896 33.2895C41.8831 32.1958 42.4983 30.713 42.5 29.1664V25ZM18.3335 28.3334C17.6703 28.3334 17.0344 28.07 16.5657 27.601C16.0969 27.1322 15.8335 26.4963 15.8335 25.8334V14.1663C15.8335 13.5033 16.0969 12.8674 16.5657 12.3987C17.0344 11.9297 17.6703 11.6663 18.3335 11.6663H40.8335V14.1663H28.3335C27.0077 14.1677 25.7367 14.695 24.7995 15.6322C23.862 16.5697 23.3346 17.8406 23.3335 19.1663V20.8331C23.3346 22.1588 23.862 23.4297 24.7995 24.3672C25.7367 25.3044 27.0076 25.8318 28.3335 25.8331H40.8335V28.3331L18.3335 28.3334ZM40.8335 15.8334V24.1663H28.3335C27.4493 24.1663 26.6017 23.8153 25.9764 23.19C25.3514 22.565 25.0001 21.7171 25.0001 20.8331V19.1663C25.0001 18.2823 25.3514 17.4344 25.9764 16.8094C26.6017 16.1841 27.4493 15.8331 28.3335 15.8331L40.8335 15.8334ZM36.6667 33.3334H13.3338C12.2292 33.332 11.17 32.8926 10.3888 32.1116C9.60782 31.3303 9.16839 30.2712 9.16703 29.1666V10.8338C9.16843 9.72912 9.60788 8.66998 10.3888 7.88876C11.1701 7.10776 12.2292 6.66834 13.3338 6.66698H36.6667C37.627 6.66837 38.5573 7.00041 39.3012 7.60755C40.045 8.21497 40.5567 9.05984 40.7501 10.0004H18.3337C17.229 10.0018 16.1699 10.4413 15.3887 11.2222C14.6077 12.0035 14.1682 13.0623 14.1669 14.167V25.8341C14.1683 26.9388 14.6077 27.9976 15.3887 28.7789C16.17 29.5599 17.2291 29.9993 18.3337 30.0007H40.7501C40.5567 30.9413 40.045 31.7861 39.3012 32.3935C38.5573 33.0007 37.627 33.3327 36.6667 33.3341V33.3334Z" fill="white"/>
<path d="M31.6664 19.9999C31.6664 20.9204 30.9203 21.6665 29.9998 21.6665C29.0793 21.6665 28.3333 20.9204 28.3333 19.9999C28.3333 19.0794 29.0793 18.3334 29.9998 18.3334C30.9203 18.3334 31.6664 19.0794 31.6664 19.9999Z" fill="white"/>
</svg>
